<svg width="48" height="48" viewBox="0 0 48 48" fill="none" xmlns="http://www.w3.org/2000/svg">
<circle cx="24" cy="24" r="24" fill="#355EFC"/>
<path d="M35.5242 12.552C34.8126 11.8403 33.6631 11.8403 32.9515 12.552L24.029 21.4562L15.1065 12.5337C14.3948 11.8221 13.2453 11.8221 12.5337 12.5337C11.8221 13.2453 11.8221 14.3948 12.5337 15.1065L21.4562 24.029L12.5337 32.9515C11.8221 33.6631 11.8221 34.8126 12.5337 35.5242C13.2453 36.2358 14.3948 36.2358 15.1065 35.5242L24.029 26.6017L32.9515 35.5242C33.6631 36.2358 34.8126 36.2358 35.5242 35.5242C36.2358 34.8126 36.2358 33.6631 35.5242 32.9515L26.6017 24.029L35.5242 15.1065C36.2176 14.4131 36.2176 13.2453 35.5242 12.552Z" fill="#F5F5F5"/>
</svg>
