<svg width="17" height="17" viewBox="0 0 17 17" fill="none" xmlns="http://www.w3.org/2000/svg">
<path id="Vector" d="M16.1437 11.6812L12.6436 10.1811C12.4941 10.1174 12.328 10.104 12.1701 10.1429C12.0123 10.1818 11.8714 10.2709 11.7686 10.3968L10.2186 12.2906C7.78598 11.1436 5.82828 9.18589 4.68132 6.75327L6.5751 5.20324C6.70125 5.10064 6.79054 4.95973 6.82945 4.80184C6.86836 4.64396 6.85476 4.47769 6.79073 4.32822L5.29071 0.828162C5.22043 0.667037 5.09613 0.535484 4.93925 0.456186C4.78236 0.376889 4.60273 0.354818 4.43132 0.393779L1.18126 1.14379C1.016 1.18196 0.868548 1.27501 0.762981 1.40776C0.657414 1.54052 0.59996 1.70513 0.599998 1.87474C0.599998 9.89051 7.09699 16.375 15.1003 16.375C15.2699 16.3751 15.4346 16.3177 15.5674 16.2121C15.7002 16.1065 15.7933 15.9591 15.8315 15.7937L16.5815 12.5437C16.6202 12.3714 16.5977 12.1911 16.5178 12.0337C16.4379 11.8762 16.3056 11.7516 16.1437 11.6812Z" fill="white"/>
</svg>
