<svg width="17" height="17" viewBox="0 0 17 17" fill="none" xmlns="http://www.w3.org/2000/svg">
<path id="Vector" d="M14.9 0.125H2.1C1.22 0.125 0.508 1.025 0.508 2.125L0.5 14.125C0.5 15.225 1.22 16.125 2.1 16.125H14.9C15.78 16.125 16.5 15.225 16.5 14.125V2.125C16.5 1.025 15.78 0.125 14.9 0.125ZM14.58 4.375L8.924 8.795C8.668 8.995 8.332 8.995 8.076 8.795L2.42 4.375C2.22 4.215 2.1 3.945 2.1 3.655C2.1 2.985 2.684 2.585 3.14 2.935L8.5 7.125L13.86 2.935C14.316 2.585 14.9 2.985 14.9 3.655C14.9 3.945 14.78 4.215 14.58 4.375Z" fill="white"/>
</svg>
