<svg width="15" height="14" viewBox="0 0 15 14" fill="none" xmlns="http://www.w3.org/2000/svg">
<path id="Vector" d="M13.294 3.84546C13.3031 3.98188 13.3031 4.11833 13.3031 4.25476C13.3031 8.41585 10.3461 13.2104 4.94149 13.2104C3.27644 13.2104 1.72968 12.6939 0.428574 11.7974C0.665146 11.8266 0.892589 11.8364 1.13826 11.8364C2.51213 11.8364 3.77686 11.3394 4.78681 10.4916C3.49481 10.4623 2.41207 9.55604 2.03902 8.30867C2.221 8.33789 2.40296 8.35738 2.59405 8.35738C2.8579 8.35738 3.12178 8.31839 3.36743 8.25021C2.02084 7.95783 1.01086 6.691 1.01086 5.16104V5.12207C1.40209 5.35595 1.85706 5.50212 2.33925 5.52159C1.54767 4.95637 1.02907 3.99163 1.02907 2.90018C1.02907 2.31549 1.17462 1.77952 1.42939 1.31176C2.87608 3.22177 5.05066 4.46911 7.48907 4.60556C7.44359 4.37168 7.41628 4.12808 7.41628 3.88445C7.41628 2.14982 8.72649 0.736816 10.3551 0.736816C11.2013 0.736816 11.9656 1.11687 12.5024 1.7308C13.1666 1.59438 13.8035 1.33125 14.3676 0.970698C14.1492 1.70159 13.6852 2.31552 13.0756 2.7053C13.667 2.63711 14.2403 2.46167 14.768 2.21807C14.3677 2.84172 13.8672 3.39716 13.294 3.84546Z" fill="white"/>
</svg>
