<svg width="15" height="13" viewBox="0 0 15 13" fill="none" xmlns="http://www.w3.org/2000/svg">
<path id="Vector" d="M3.18836 12.4726H0.23528V4.14529H3.18836V12.4726ZM1.71023 3.00937C0.765931 3.00937 0 2.32447 0 1.49758C6.75888e-09 1.1004 0.180184 0.719484 0.500914 0.438632C0.821644 0.157781 1.25665 0 1.71023 0C2.16381 0 2.59881 0.157781 2.91954 0.438632C3.24027 0.719484 3.42046 1.1004 3.42046 1.49758C3.42046 2.32447 2.65421 3.00937 1.71023 3.00937ZM14.2408 12.4726H11.2941V8.41893C11.2941 7.45284 11.2718 6.2139 9.7587 6.2139C8.22334 6.2139 7.98806 7.26352 7.98806 8.34933V12.4726H5.03816V4.14529H7.87042V5.28122H7.91176C8.30601 4.62695 9.26906 3.93648 10.7059 3.93648C13.6945 3.93648 14.244 5.65986 14.244 7.8983V12.4726H14.2408Z" fill="white"/>
</svg>
