<svg width="14" height="14" viewBox="0 0 14 14" fill="none" xmlns="http://www.w3.org/2000/svg">
<path id="Vector" d="M3.10493 14H0.452648V4.65292H3.10493V14ZM1.77736 3.37789C0.929248 3.37789 0.241333 2.60912 0.241333 1.68097C0.241333 1.23515 0.403164 0.80759 0.691225 0.492346C0.979287 0.177102 1.36998 0 1.77736 0C2.18474 0 2.57544 0.177102 2.8635 0.492346C3.15156 0.80759 3.31339 1.23515 3.31339 1.68097C3.31339 2.60912 2.62519 3.37789 1.77736 3.37789ZM13.0316 14H10.385V9.4499C10.385 8.3655 10.365 6.97484 9.00604 6.97484C7.62707 6.97484 7.41575 8.15299 7.41575 9.37177V14H4.76632V4.65292H7.31009V5.92795H7.34722C7.70131 5.19355 8.56627 4.41854 9.85672 4.41854C12.541 4.41854 13.0344 6.35295 13.0344 8.86551V14H13.0316Z" fill="#355EFC"/>
</svg>
