<svg width="201" height="56" viewBox="0 0 201 56" fill="none" xmlns="http://www.w3.org/2000/svg">
<path d="M21.0061 19.36H36.0301V12.4H21.0061V19.36ZM21.0061 32.512H35.5501V25.984H21.0061V32.512ZM15.6301 12.4V46H23.4061V12.4H15.6301ZM41.0094 15.616C41.0094 16.768 41.4254 17.712 42.2574 18.448C43.0894 19.184 44.0814 19.552 45.2334 19.552C46.4174 19.552 47.4094 19.184 48.2094 18.448C49.0414 17.712 49.4574 16.768 49.4574 15.616C49.4574 14.464 49.0414 13.536 48.2094 12.832C47.4094 12.096 46.4174 11.728 45.2334 11.728C44.0814 11.728 43.0894 12.096 42.2574 12.832C41.4254 13.536 41.0094 14.464 41.0094 15.616ZM41.7294 23.92V46H48.7374V23.92H41.7294ZM69.059 32.56V46H76.595V31.792C76.595 29.136 75.971 27.072 74.723 25.6C73.475 24.128 71.475 23.392 68.723 23.392C67.091 23.392 65.715 23.728 64.595 24.4C63.507 25.072 62.643 26.016 62.003 27.232V23.92H54.707V46H62.003V32.56C62.003 31.696 62.163 30.96 62.483 30.352C62.803 29.744 63.251 29.28 63.827 28.96C64.403 28.64 65.075 28.48 65.843 28.48C66.995 28.48 67.811 28.832 68.291 29.536C68.803 30.24 69.059 31.248 69.059 32.56ZM87.9324 39.088C87.9324 38.544 88.0604 38.096 88.3164 37.744C88.5724 37.36 88.9564 37.072 89.4684 36.88C89.9804 36.688 90.6684 36.592 91.5324 36.592C92.6524 36.592 93.7084 36.752 94.7004 37.072C95.7244 37.36 96.6204 37.792 97.3884 38.368V35.152C97.0044 34.736 96.4284 34.336 95.6604 33.952C94.8924 33.568 93.9644 33.248 92.8764 32.992C91.8204 32.736 90.6204 32.608 89.2764 32.608C86.5244 32.608 84.3964 33.232 82.8924 34.48C81.3884 35.696 80.6364 37.36 80.6364 39.472C80.6364 40.976 80.9884 42.256 81.6924 43.312C82.4284 44.368 83.3884 45.168 84.5724 45.712C85.7884 46.224 87.1004 46.48 88.5084 46.48C89.9164 46.48 91.2284 46.24 92.4444 45.76C93.6604 45.248 94.6524 44.512 95.4204 43.552C96.1884 42.56 96.5724 41.36 96.5724 39.952L95.8044 37.072C95.8044 38.096 95.5804 38.96 95.1324 39.664C94.6844 40.368 94.1084 40.896 93.4044 41.248C92.7004 41.6 91.9324 41.776 91.1004 41.776C90.5244 41.776 89.9964 41.68 89.5164 41.488C89.0364 41.264 88.6524 40.96 88.3644 40.576C88.0764 40.16 87.9324 39.664 87.9324 39.088ZM84.7164 30.688C85.0364 30.496 85.5484 30.256 86.2524 29.968C86.9564 29.648 87.7724 29.376 88.7004 29.152C89.6604 28.928 90.6364 28.816 91.6284 28.816C92.3004 28.816 92.8924 28.88 93.4044 29.008C93.9484 29.136 94.3964 29.344 94.7484 29.632C95.1004 29.92 95.3564 30.272 95.5164 30.688C95.7084 31.072 95.8044 31.536 95.8044 32.08V46H102.764V30.448C102.764 28.912 102.316 27.616 101.42 26.56C100.524 25.504 99.3084 24.704 97.7724 24.16C96.2364 23.584 94.4924 23.296 92.5404 23.296C90.4604 23.296 88.5404 23.568 86.7804 24.112C85.0204 24.656 83.5164 25.232 82.2684 25.84L84.7164 30.688ZM122.543 32.56V46H130.079V31.792C130.079 29.136 129.455 27.072 128.207 25.6C126.959 24.128 124.959 23.392 122.207 23.392C120.575 23.392 119.199 23.728 118.079 24.4C116.991 25.072 116.127 26.016 115.487 27.232V23.92H108.191V46H115.487V32.56C115.487 31.696 115.647 30.96 115.967 30.352C116.287 29.744 116.735 29.28 117.311 28.96C117.887 28.64 118.559 28.48 119.327 28.48C120.479 28.48 121.295 28.832 121.775 29.536C122.287 30.24 122.543 31.248 122.543 32.56ZM145.257 30.496L133.689 46H155.769V39.424H146.265L157.305 23.92H135.705V30.496H145.257ZM166.495 39.088C166.495 38.544 166.623 38.096 166.879 37.744C167.135 37.36 167.519 37.072 168.031 36.88C168.543 36.688 169.231 36.592 170.095 36.592C171.215 36.592 172.271 36.752 173.263 37.072C174.287 37.36 175.183 37.792 175.951 38.368V35.152C175.567 34.736 174.991 34.336 174.223 33.952C173.455 33.568 172.527 33.248 171.439 32.992C170.383 32.736 169.183 32.608 167.839 32.608C165.087 32.608 162.959 33.232 161.455 34.48C159.951 35.696 159.199 37.36 159.199 39.472C159.199 40.976 159.551 42.256 160.255 43.312C160.991 44.368 161.951 45.168 163.135 45.712C164.351 46.224 165.663 46.48 167.071 46.48C168.479 46.48 169.791 46.24 171.007 45.76C172.223 45.248 173.215 44.512 173.983 43.552C174.751 42.56 175.135 41.36 175.135 39.952L174.367 37.072C174.367 38.096 174.143 38.96 173.695 39.664C173.247 40.368 172.671 40.896 171.967 41.248C171.263 41.6 170.495 41.776 169.663 41.776C169.087 41.776 168.559 41.68 168.079 41.488C167.599 41.264 167.215 40.96 166.927 40.576C166.639 40.16 166.495 39.664 166.495 39.088ZM163.279 30.688C163.599 30.496 164.111 30.256 164.815 29.968C165.519 29.648 166.335 29.376 167.263 29.152C168.223 28.928 169.199 28.816 170.191 28.816C170.863 28.816 171.455 28.88 171.967 29.008C172.511 29.136 172.959 29.344 173.311 29.632C173.663 29.92 173.919 30.272 174.079 30.688C174.271 31.072 174.367 31.536 174.367 32.08V46H181.327V30.448C181.327 28.912 180.879 27.616 179.983 26.56C179.087 25.504 177.871 24.704 176.335 24.16C174.799 23.584 173.055 23.296 171.103 23.296C169.023 23.296 167.103 23.568 165.343 24.112C163.583 24.656 162.079 25.232 160.831 25.84L163.279 30.688Z" fill="#355EFC"/>
</svg>
