<svg width="49" height="31" viewBox="0 0 49 31" fill="none" xmlns="http://www.w3.org/2000/svg">
<path id="Vector" d="M12.5151 21.8624C11.4289 21.3439 11.9951 21.4901 9.37515 21.1554C8.18642 21.0032 7.14143 20.7109 6.19644 20.3606L0.525245 26.9979C-0.0234989 27.6406 1.00149 28.3387 2.45398 28.3124L9.04016 28.1925L13.5701 30.4765C14.5701 30.9801 16.3251 30.8232 16.8738 30.1806L23.38 22.5659C22.025 22.9263 20.5213 23.1375 18.9663 23.1375C16.5288 23.1375 14.2389 22.6846 12.5151 21.8624ZM48.2248 26.9979L42.5536 20.3606C41.6086 20.7114 40.5636 21.0032 39.3748 21.1554C36.7411 21.4919 37.3186 21.3451 36.2349 21.8624C34.5112 22.6846 32.2199 23.1375 29.7824 23.1375C28.2275 23.1375 26.7237 22.9257 25.3687 22.5659L31.8749 30.1806C32.4237 30.8232 34.1799 30.9801 35.1786 30.4765L39.7098 28.1925L46.296 28.3124C47.7485 28.3387 48.7735 27.64 48.2248 26.9979ZM33.2499 20.5122C35.1599 19.5843 35.3786 19.6643 38.0986 19.3105C39.8348 19.0843 41.1923 18.425 41.6573 17.5813C42.5923 15.8868 42.3498 16.0914 44.901 14.8516C46.1723 14.234 46.6685 13.3337 46.2035 12.49C45.2698 10.7966 45.2685 11.0329 46.2035 9.33777C46.6685 8.49408 46.1723 7.59371 44.901 6.97616C42.3498 5.73628 42.5923 5.94034 41.6573 4.2464C41.1923 3.40271 39.8348 2.74339 38.0986 2.51726C34.6136 2.06319 35.0336 2.18193 32.4799 0.941458C31.2087 0.323907 29.3549 0.0822564 27.6187 0.308394C24.135 0.761861 24.6212 0.762458 21.1313 0.308394C19.3951 0.0822564 17.5413 0.32331 16.2701 0.941458C13.7189 2.18133 14.1389 2.06319 10.6526 2.51726C8.91641 2.74339 7.55892 3.40271 7.09393 4.2464C6.16019 5.94034 6.40143 5.73628 3.85021 6.97616C2.57897 7.59371 2.08148 8.49408 2.54772 9.33777C3.48147 11.0299 3.48272 10.7936 2.54772 12.4894C2.08273 13.3331 2.57897 14.2334 3.85021 14.8516C6.40143 16.0914 6.15894 15.8868 7.09393 17.5813C7.55892 18.425 8.91641 19.0843 10.6526 19.3105C13.4501 19.6744 13.6589 19.6172 15.5001 20.5122C17.1538 21.3159 19.73 21.4597 21.7175 20.8594C22.5123 20.6186 23.4342 20.4907 24.3756 20.4907C25.317 20.4907 26.239 20.6186 27.0337 20.8594C29.02 21.4597 31.5962 21.3159 33.2499 20.5122ZM12.5826 10.7244C12.5826 7.56029 17.8626 4.99522 24.375 4.99522C30.8874 4.99522 36.1674 7.56029 36.1674 10.7244C36.1674 13.8886 30.8874 16.4536 24.375 16.4536C17.8626 16.4536 12.5826 13.8886 12.5826 10.7244Z" fill="white"/>
</svg>
