<svg width="49" height="31" viewBox="0 0 49 31" fill="none" xmlns="http://www.w3.org/2000/svg">
<path id="Vector" d="M7.825 13.3178C10.4725 13.3178 12.625 11.3607 12.625 8.95355C12.625 6.54637 10.4725 4.58926 7.825 4.58926C5.1775 4.58926 3.025 6.54637 3.025 8.95355C3.025 11.3607 5.1775 13.3178 7.825 13.3178ZM41.425 13.3178C44.0725 13.3178 46.225 11.3607 46.225 8.95355C46.225 6.54637 44.0725 4.58926 41.425 4.58926C38.7775 4.58926 36.625 6.54637 36.625 8.95355C36.625 11.3607 38.7775 13.3178 41.425 13.3178ZM43.825 15.5H39.025C37.705 15.5 36.5125 15.9841 35.6425 16.7683C38.665 18.2754 40.81 20.9962 41.275 24.2285H46.225C47.5525 24.2285 48.625 23.2534 48.625 22.0464V19.8643C48.625 17.4571 46.4725 15.5 43.825 15.5ZM24.625 15.5C29.2675 15.5 33.025 12.0836 33.025 7.86248C33.025 3.64139 29.2675 0.224976 24.625 0.224976C19.9825 0.224976 16.225 3.64139 16.225 7.86248C16.225 12.0836 19.9825 15.5 24.625 15.5ZM30.385 17.6821H29.7625C28.2025 18.364 26.47 18.7732 24.625 18.7732C22.78 18.7732 21.055 18.364 19.4875 17.6821H18.865C14.095 17.6821 10.225 21.2008 10.225 25.5378V27.5018C10.225 29.3088 11.8375 30.775 13.825 30.775H35.425C37.4125 30.775 39.025 29.3088 39.025 27.5018V25.5378C39.025 21.2008 35.155 17.6821 30.385 17.6821ZM13.6075 16.7683C12.7375 15.9841 11.545 15.5 10.225 15.5H5.425C2.7775 15.5 0.625 17.4571 0.625 19.8643V22.0464C0.625 23.2534 1.6975 24.2285 3.025 24.2285H7.9675C8.44 20.9962 10.585 18.2754 13.6075 16.7683Z" fill="white"/>
</svg>
