<svg width="49" height="31" viewBox="0 0 49 31" fill="none" xmlns="http://www.w3.org/2000/svg">
<path id="Vector" d="M45.9173 21.3146C46.1123 20.3529 46.1123 19.3707 45.9173 18.409L47.8525 17.3927C48.0776 17.2768 48.1751 17.038 48.1001 16.813C47.5975 15.3397 46.7349 14.0028 45.6098 12.8979C45.4373 12.7274 45.1598 12.6864 44.9347 12.8024L42.9995 13.8187C42.1819 13.1843 41.2443 12.6932 40.2317 12.3659V10.3333C40.2317 10.1014 40.0517 9.89676 39.8042 9.84901C38.1315 9.50797 36.4288 9.52162 34.8387 9.84901C34.5911 9.89676 34.4111 10.1014 34.4111 10.3333V12.3659C33.3985 12.6932 32.4609 13.1843 31.6433 13.8187L29.7081 12.8024C29.4906 12.6864 29.2056 12.7274 29.033 12.8979C27.9079 14.0028 27.0453 15.3397 26.5428 16.813C26.4678 17.038 26.5728 17.2768 26.7903 17.3927L28.7255 18.409C28.5305 19.3707 28.5305 20.3529 28.7255 21.3146L26.7903 22.3309C26.5653 22.4469 26.4678 22.6856 26.5428 22.9107C27.0453 24.384 27.9079 25.714 29.033 26.8258C29.2056 26.9963 29.4831 27.0372 29.7081 26.9213L31.6433 25.905C32.4609 26.5393 33.3985 27.0304 34.4111 27.3578V29.3904C34.4111 29.6223 34.5911 29.8269 34.8387 29.8746C36.5113 30.2157 38.214 30.202 39.8042 29.8746C40.0517 29.8269 40.2317 29.6223 40.2317 29.3904V27.3578C41.2443 27.0304 42.1819 26.5393 42.9995 25.905L44.9347 26.9213C45.1522 27.0372 45.4373 26.9963 45.6098 26.8258C46.7349 25.7208 47.5975 24.384 48.1001 22.9107C48.1751 22.6856 48.0701 22.4469 47.8525 22.3309L45.9173 21.3146ZM37.3289 23.1699C35.3187 23.1699 33.691 21.683 33.691 19.8618C33.691 18.0407 35.3262 16.5538 37.3289 16.5538C39.3316 16.5538 40.9668 18.0407 40.9668 19.8618C40.9668 21.683 39.3391 23.1699 37.3289 23.1699ZM7.32576 13.3139C9.97354 13.3139 12.1263 11.3564 12.1263 8.94868C12.1263 6.54096 9.97354 4.58342 7.32576 4.58342C4.67798 4.58342 2.52525 6.54096 2.52525 8.94868C2.52525 11.3564 4.67798 13.3139 7.32576 13.3139ZM24.1275 15.4966C24.27 15.4966 24.4051 15.4625 24.5476 15.4556C25.1701 13.9755 26.0852 12.5841 27.2704 11.4178C27.8254 10.8721 28.613 10.5584 29.4381 10.5584C29.9556 10.5584 30.4657 10.6811 30.9082 10.9199L31.5008 11.2336C31.5608 11.1995 31.6208 11.1722 31.6808 11.1381C32.2059 10.1423 32.5209 9.03734 32.5209 7.86418C32.5209 3.64216 28.763 0.224976 24.12 0.224976C19.477 0.224976 15.7266 3.63534 15.7266 7.85736C15.7266 12.0794 19.4845 15.4966 24.1275 15.4966ZM32.0184 28.7629C31.8458 28.681 31.6733 28.5855 31.5083 28.4969C30.8932 28.8242 30.3607 29.1653 29.4456 29.1653C28.628 29.1653 27.8404 28.8515 27.2779 28.3059C25.9052 26.9554 24.8551 25.3116 24.2625 23.5587C23.46 21.2055 26.1302 20.1688 26.1978 20.1278C26.1902 19.9505 26.1902 19.7732 26.1978 19.5958L25.6052 19.2821C25.3202 19.132 25.0801 18.941 24.8701 18.7296C24.6226 18.7432 24.3826 18.7705 24.135 18.7705C22.2898 18.7705 20.5647 18.3613 18.997 17.6792H18.3744C13.5964 17.6792 9.72601 21.1987 9.72601 25.5367V27.501C9.72601 29.3085 11.3387 30.775 13.3264 30.775H32.4834C32.2059 30.3657 32.0184 29.9019 32.0184 29.3904V28.7629ZM13.1089 16.7652C12.2388 15.9808 11.0462 15.4966 9.72601 15.4966H4.92551C2.27773 15.4966 0.125 17.4541 0.125 19.8618V22.0445C0.125 23.2517 1.19761 24.2271 2.52525 24.2271H7.46827C7.94082 20.9941 10.0861 18.2726 13.1089 16.7652Z" fill="white"/>
</svg>
