<svg width="49" height="48" viewBox="0 0 49 48" fill="none" xmlns="http://www.w3.org/2000/svg">
<g id="phone">
<circle id="Ellipse 2" cx="24.5" cy="24" r="24" fill="#355EFC"/>
<path id="Vector" d="M34.1485 28.3664L30.755 27.9789C29.94 27.8854 29.1384 28.166 28.5639 28.7404L26.1056 31.1987C22.3247 29.2749 19.2251 26.1886 17.3012 22.3943L19.7729 19.9227C20.3474 19.3482 20.6279 18.5465 20.5344 17.7316L20.147 14.3648C19.9866 13.0154 18.851 12 17.4883 12H15.177C13.6672 12 12.4114 13.2559 12.5049 14.7656C13.213 26.1753 22.338 35.287 33.7343 35.9951C35.244 36.0886 36.4999 34.8327 36.4999 33.323V31.0117C36.5132 29.6623 35.4979 28.5267 34.1485 28.3664Z" fill="white"/>
</g>
</svg>
