<svg width="15" height="14" viewBox="0 0 15 14" fill="none" xmlns="http://www.w3.org/2000/svg">
<path id="Vector" d="M14.1007 9.8929L11.0382 8.58037C10.9074 8.52462 10.762 8.51287 10.6239 8.5469C10.4858 8.58092 10.3625 8.65889 10.2726 8.76905L8.91628 10.4261C6.78773 9.42252 5.07474 7.70953 4.07116 5.58098L5.72822 4.22471C5.8386 4.13493 5.91673 4.01164 5.95077 3.87349C5.98481 3.73534 5.97292 3.58986 5.91689 3.45907L4.60437 0.396517C4.54287 0.255532 4.43411 0.140423 4.29684 0.0710381C4.15957 0.001653 4.00239 -0.017659 3.8524 0.016432L1.0086 0.672694C0.863998 0.706086 0.734981 0.787506 0.64261 0.903666C0.550238 1.01983 0.499967 1.16387 0.5 1.31228C0.5 8.32607 6.18486 14 13.1877 14C13.3362 14.0001 13.4803 13.9499 13.5965 13.8575C13.7127 13.7651 13.7942 13.636 13.8276 13.4914L14.4838 10.6476C14.5177 10.4969 14.498 10.3391 14.4281 10.2013C14.3581 10.0636 14.2424 9.95451 14.1007 9.8929Z" fill="#355EFC"/>
</svg>
