<svg width="13" height="14" viewBox="0 0 13 14" fill="none" xmlns="http://www.w3.org/2000/svg">
<path id="Vector" d="M11.4912 3.48905C11.4993 3.64217 11.4993 3.79532 11.4993 3.94844C11.4993 8.61873 8.88365 14 4.10306 14C2.63026 14 1.26209 13.4203 0.111206 12.4141C0.320464 12.4469 0.521646 12.4578 0.738956 12.4578C1.9542 12.4578 3.0729 11.9 3.96624 10.9485C2.82341 10.9156 1.86568 9.89845 1.53571 8.49844C1.69668 8.53123 1.85763 8.55311 2.02666 8.55311C2.26005 8.55311 2.49346 8.50934 2.71074 8.43282C1.51963 8.10467 0.626263 6.68281 0.626263 4.96562V4.92189C0.972318 5.18439 1.37476 5.34845 1.80127 5.3703C1.10109 4.73591 0.642365 3.65311 0.642365 2.4281C0.642365 1.77186 0.771111 1.1703 0.996472 0.645296C2.27612 2.78904 4.19963 4.18902 6.3565 4.34217C6.31627 4.07967 6.29211 3.80626 6.29211 3.53282C6.29211 1.58592 7.45105 0 8.89165 0C9.64012 0 10.3162 0.426561 10.791 1.11562C11.3785 0.962507 11.9419 0.66718 12.4409 0.262502C12.2477 1.08283 11.8372 1.7719 11.298 2.20937C11.8212 2.13284 12.3282 1.93592 12.795 1.66251C12.4409 2.36248 11.9982 2.9859 11.4912 3.48905Z" fill="#355EFC"/>
</svg>
