<svg viewBox="0 0 216 216" xmlns="http://www.w3.org/2000/svg"><path d="m0 0h216v216h-216z" fill="none"/><path d="m37.2 79.7h141.5c1.5 0 2.9-1 3.4-2.5s-.1-3.1-1.3-4l-70.8-49.5c-1.2-.9-2.8-.9-4.1 0l-70.7 49.6c-1.3.9-1.8 2.5-1.3 4 .4 1.4 1.8 2.4 3.3 2.4zm70.8-48.8 59.5 41.7h-119zm81.4 158.5c0 2-1.6 3.5-3.5 3.5h-155.7c-2 0-3.5-1.6-3.5-3.5 0-2 1.6-3.5 3.5-3.5h155.7c1.9-.1 3.5 1.5 3.5 3.5zm-148.6-14.2c0-2 1.6-3.5 3.5-3.5h127.4c2 0 3.5 1.6 3.5 3.5 0 2-1.6 3.5-3.5 3.5h-127.4c-1.9.1-3.5-1.5-3.5-3.5z" fill="#004dce"/><g fill="#0bb5ff"><path d="m40.8 154v-56.6c0-2 1.6-3.5 3.5-3.5s3.5 1.6 3.5 3.5v56.6c0 2-1.6 3.5-3.5 3.5s-3.5-1.5-3.5-3.5z"/><path d="m65.5 157.5c-2 0-3.5-1.6-3.5-3.5v-56.6c0-2 1.6-3.5 3.5-3.5 2 0 3.5 1.6 3.5 3.5v56.6c.1 2-1.5 3.5-3.5 3.5z"/><path d="m86.8 157.5c-2 0-3.5-1.6-3.5-3.5v-56.6c0-2 1.6-3.5 3.5-3.5 2 0 3.5 1.6 3.5 3.5v56.6c0 2-1.6 3.5-3.5 3.5z"/><path d="m150.5 157.5c-2 0-3.5-1.6-3.5-3.5v-56.6c0-2 1.6-3.5 3.5-3.5s3.5 1.6 3.5 3.5v56.6c0 2-1.6 3.5-3.5 3.5z"/><path d="m129.2 157.5c-2 0-3.5-1.6-3.5-3.5v-56.6c0-2 1.6-3.5 3.5-3.5 2 0 3.5 1.6 3.5 3.5v56.6c.1 2-1.5 3.5-3.5 3.5z"/><path d="m175.2 154c0 2-1.6 3.5-3.5 3.5-2 0-3.5-1.6-3.5-3.5v-56.6c0-2 1.6-3.5 3.5-3.5 2 0 3.5 1.6 3.5 3.5z"/><path d="m108 44.3c-5.9 0-10.6 4.8-10.6 10.6s4.8 10.6 10.6 10.6c5.9 0 10.6-4.8 10.6-10.6s-4.7-10.6-10.6-10.6zm0 14.2c-2 0-3.5-1.6-3.5-3.5 0-2 1.6-3.5 3.5-3.5 2 0 3.5 1.6 3.5 3.5s-1.5 3.5-3.5 3.5z"/></g></svg>