<svg width="49" height="48" viewBox="0 0 49 48" fill="none" xmlns="http://www.w3.org/2000/svg">
<g id="users">
<circle id="Ellipse 2" cx="24.5" cy="24" r="24" fill="#355EFC"/>
<path id="Vector" d="M29.5043 22.2857C31.7181 22.2857 33.4919 19.9886 33.4919 17.1429C33.4919 14.2971 31.7181 12 29.5043 12C27.2905 12 25.5035 14.2971 25.5035 17.1429C25.5035 19.9886 27.2905 22.2857 29.5043 22.2857ZM18.8354 22.2857C21.0492 22.2857 22.8229 19.9886 22.8229 17.1429C22.8229 14.2971 21.0492 12 18.8354 12C16.6215 12 14.8345 14.2971 14.8345 17.1429C14.8345 19.9886 16.6215 22.2857 18.8354 22.2857ZM18.8354 25.7143C15.728 25.7143 9.5 27.72 9.5 31.7143V34.2857C9.5 35.2286 10.1001 36 10.8336 36H26.8371C27.5706 36 28.1707 35.2286 28.1707 34.2857V31.7143C28.1707 27.72 21.9427 25.7143 18.8354 25.7143ZM29.5043 25.7143C29.1176 25.7143 28.6775 25.7486 28.2107 25.8C28.2374 25.8171 28.2507 25.8514 28.2641 25.8686C29.7844 27.2914 30.838 29.1943 30.838 31.7143V34.2857C30.838 34.8857 30.7446 35.4686 30.5979 36H37.5061C38.2396 36 38.8397 35.2286 38.8397 34.2857V31.7143C38.8397 27.72 32.6117 25.7143 29.5043 25.7143Z" fill="white"/>
</g>
</svg>
