<svg width="17" height="11" viewBox="0 0 17 11" fill="none" xmlns="http://www.w3.org/2000/svg">
<path id="Vector" d="M15.8303 1.82491C15.6544 1.2046 15.1359 0.716073 14.4776 0.550283C13.2845 0.249023 8.50003 0.249023 8.50003 0.249023C8.50003 0.249023 3.71561 0.249023 2.52242 0.550283C1.86415 0.716099 1.3457 1.2046 1.16974 1.82491C0.850029 2.94924 0.850029 5.29506 0.850029 5.29506C0.850029 5.29506 0.850029 7.64087 1.16974 8.76521C1.3457 9.38551 1.86415 9.85369 2.52242 10.0195C3.71561 10.3207 8.50003 10.3207 8.50003 10.3207C8.50003 10.3207 13.2844 10.3207 14.4776 10.0195C15.1359 9.85369 15.6544 9.38551 15.8303 8.76521C16.15 7.64087 16.15 5.29506 16.15 5.29506C16.15 5.29506 16.15 2.94924 15.8303 1.82491ZM6.93525 7.42488V3.16523L10.9341 5.29511L6.93525 7.42488Z" fill="white"/>
</svg>
