<svg width="12" height="17" viewBox="0 0 12 17" fill="none" xmlns="http://www.w3.org/2000/svg">
<g id="&#240;&#159;&#166;&#134; icon &#34;location pin&#34;">
<path id="Vector" d="M5.6 0.625C2.504 0.625 0 3.129 0 6.225C0 7.617 0.4 8.921 1.128 10.097C1.888 11.329 2.888 12.385 3.656 13.617C4.032 14.217 4.304 14.777 4.592 15.425C4.8 15.865 4.968 16.625 5.6 16.625C6.232 16.625 6.4 15.865 6.6 15.425C6.896 14.777 7.16 14.217 7.536 13.617C8.304 12.393 9.304 11.337 10.064 10.097C10.8 8.921 11.2 7.617 11.2 6.225C11.2 3.129 8.696 0.625 5.6 0.625ZM5.6 8.425C4.496 8.425 3.6 7.529 3.6 6.425C3.6 5.321 4.496 4.425 5.6 4.425C6.704 4.425 7.6 5.321 7.6 6.425C7.6 7.529 6.704 8.425 5.6 8.425Z" fill="white"/>
</g>
</svg>
