<svg width="14" height="19" viewBox="0 0 14 19" fill="none" xmlns="http://www.w3.org/2000/svg">
<g id="&#240;&#159;&#166;&#134; icon &#34;email&#34;">
<path id="Vector" d="M11.6667 3.16687H2.33335C1.69169 3.16687 1.17252 3.87937 1.17252 4.7502L1.16669 14.2502C1.16669 15.121 1.69169 15.8335 2.33335 15.8335H11.6667C12.3084 15.8335 12.8334 15.121 12.8334 14.2502V4.7502C12.8334 3.87937 12.3084 3.16687 11.6667 3.16687ZM11.4334 6.53145L7.30919 10.0306C7.12252 10.189 6.87752 10.189 6.69085 10.0306L2.56669 6.53145C2.42085 6.40479 2.33335 6.19104 2.33335 5.96145C2.33335 5.43104 2.75919 5.11437 3.09169 5.39145L7.00002 8.70854L10.9084 5.39145C11.2409 5.11437 11.6667 5.43104 11.6667 5.96145C11.6667 6.19104 11.5792 6.40479 11.4334 6.53145Z" fill="#355EFC"/>
</g>
</svg>
